<svg xmlns="http://www.w3.org/2000/svg" xmlns:xlink="http://www.w3.org/1999/xlink" xmlns:serif="http://www.serif.com/" width="100%" height="100%" viewBox="0 0 473 472" xml:space="preserve" style="fill-rule:evenodd;clip-rule:evenodd;stroke-miterlimit:10;">    <g id="Artboard1" transform="matrix(0.628989,0,0,0.726154,7.54787,-40.6646)">        <rect x="-12" y="56" width="752" height="650" style="fill:none;"></rect>        <clipPath id="_clip1">            <rect x="-12" y="56" width="752" height="650"></rect>        </clipPath>        <g clip-path="url(#_clip1)">            <g id="Layer-1" serif:id="Layer 1" transform="matrix(1.58985,0,0,1.37712,-121.7,-168.47)">                <g transform="matrix(0,-1,-1,0,305.916,165.179)">                    <path d="M-234,-234C-363.235,-234 -468,-129.235 -468,0C-468,129.235 -363.235,234 -234,234C-104.765,234 0,129.235 0,0C0,-129.235 -104.765,-234 -234,-234" style="fill:white;fill-rule:nonzero;"></path>                </g>                <g transform="matrix(0,-1,-1,0,305.916,165.179)">                    <path d="M-234,-234C-363.235,-234 -468,-129.235 -468,0C-468,129.235 -363.235,234 -234,234C-104.765,234 0,129.235 0,0C0,-129.235 -104.765,-234 -234,-234Z" style="fill:none;fill-rule:nonzero;stroke:rgb(39,170,225);stroke-width:3.28px;"></path>                </g>                <g transform="matrix(0.859258,-0.511543,-0.511543,-0.859258,371.605,306.95)">                    <path d="M-28.894,-19.52C-28.894,-19.52 4.675,-22.86 42.439,-40.727C40.785,7.321 15.487,53.56 -28.894,79.981C-72.18,105.751 -123.386,106.576 -165.809,86.7C-144.163,78.451 -79.898,49.466 -28.894,-19.52" style="fill:rgb(251,176,64);fill-rule:nonzero;"></path>                </g>                <g transform="matrix(1,0,0,1,179.292,329.776)">                    <path d="M0,66.546C17.097,37.716 34.309,19.034 47.226,7.582C55.193,0.518 62.235,-4.493 67.813,-7.964C46.316,-9.01 23.289,-7.749 0.196,-2.473C-12.04,18.852 -19.038,43.566 -19.038,69.915C-19.038,71.805 -18.99,73.683 -18.919,75.556C-14.614,73.069 -8.204,69.746 0,66.546" style="fill:rgb(139,197,63);fill-rule:nonzero;"></path>                </g>                <g transform="matrix(1,0,0,1,292.061,374.748)">                    <path d="M0,-33.147C6.987,-37.565 13.257,-40.878 18.55,-43.346C2.433,-47.359 -16.745,-50.947 -37.578,-52.482C-43.455,-49.271 -52.452,-43.553 -63.047,-34.129C-75.015,-23.483 -90.758,-6.479 -106.638,19.335C-93.391,14.809 -76.442,11.034 -56.724,11.034C-54.533,11.034 -52.343,11.084 -50.155,11.178C-31.478,-10.673 -13.483,-24.62 0,-33.147" style="fill:rgb(139,197,63);fill-rule:nonzero;"></path>                </g>                <g transform="matrix(1,0,0,1,317.022,395.446)">                    <path d="M0,-62.385C-6.008,-59.865 -13.905,-56.008 -22.974,-50.256C-35.657,-42.211 -52.428,-29.249 -69.973,-9.207C-55.696,-8.114 -41.5,-5.035 -27.487,0C-7.031,-23.244 15.657,-39.188 37.146,-50.118C30.222,-52.909 17.169,-57.773 0,-62.385" style="fill:rgb(139,197,63);fill-rule:nonzero;"></path>                </g>                <g transform="matrix(1,0,0,1,379.319,526.59)">                    <path d="M0,-1.069C-0.617,-0.708 -1.237,-0.352 -1.86,0C-1.237,-0.352 -0.617,-0.708 0,-1.069" style="fill:rgb(139,197,63);fill-rule:nonzero;"></path>                </g>                <g transform="matrix(1,0,0,1,383.461,525.253)">                    <path d="M0,-2.247C-1.217,-1.48 -2.447,-0.731 -3.689,0C-2.447,-0.731 -1.217,-1.48 0,-2.247" style="fill:rgb(139,197,63);fill-rule:nonzero;"></path>                </g>                <g transform="matrix(1,0,0,1,376.953,529.021)">                    <path d="M0,-2.148C-1.313,-1.413 -2.637,-0.695 -3.975,0C-2.637,-0.695 -1.313,-1.413 0,-2.148" style="fill:rgb(139,197,63);fill-rule:nonzero;"></path>                </g>                <g transform="matrix(1,0,0,1,446.9,366.39)">                    <path d="M0,-3.393C0.293,-2.267 0.576,-1.137 0.842,0C0.576,-1.137 0.292,-2.266 0,-3.393" style="fill:rgb(139,197,63);fill-rule:nonzero;"></path>                </g>                <g transform="matrix(1,0,0,1,448.043,370.74)">                    <path d="M0,-3.01C0.224,-2.01 0.442,-1.007 0.645,0C0.442,-1.007 0.224,-2.01 0,-3.01" style="fill:rgb(139,197,63);fill-rule:nonzero;"></path>                </g>                <g transform="matrix(1,0,0,1,437.391,340.056)">                    <path d="M0,-3.106C0.492,-2.078 0.971,-1.042 1.439,0C0.971,-1.042 0.492,-2.077 0,-3.106" style="fill:rgb(139,197,63);fill-rule:nonzero;"></path>                </g>                <g transform="matrix(1,0,0,1,439.243,344.264)">                    <path d="M0,-3.286C0.48,-2.198 0.944,-1.102 1.398,0C0.945,-1.102 0.48,-2.198 0,-3.286" style="fill:rgb(139,197,63);fill-rule:nonzero;"></path>                </g>                <g transform="matrix(1,0,0,1,433.287,332.032)">                    <path d="M0,-3.024C0.557,-2.023 1.104,-1.015 1.638,0C1.104,-1.015 0.557,-2.023 0,-3.024" style="fill:rgb(139,197,63);fill-rule:nonzero;"></path>                </g>                <g transform="matrix(1,0,0,1,435.409,335.992)">                    <path d="M0,-3.025C0.517,-2.023 1.024,-1.015 1.518,0C1.024,-1.015 0.517,-2.023 0,-3.025" style="fill:rgb(139,197,63);fill-rule:nonzero;"></path>                </g>                <g transform="matrix(1,0,0,1,440.969,348.739)">                    <path d="M0,-3.687C0.494,-2.466 0.971,-1.237 1.433,0C0.971,-1.237 0.494,-2.466 0,-3.687" style="fill:rgb(139,197,63);fill-rule:nonzero;"></path>                </g>                <g transform="matrix(1,0,0,1,442.57,362.093)">                    <path d="M0,-12.917C1.56,-8.7 2.93,-4.39 4.101,0C2.93,-4.391 1.56,-8.7 0,-12.917" style="fill:rgb(139,197,63);fill-rule:nonzero;"></path>                </g>                <g transform="matrix(1,0,0,1,385.468,522.874)">                    <path d="M0,-1.156C-0.596,-0.767 -1.194,-0.38 -1.795,0C-1.193,-0.38 -0.596,-0.767 0,-1.156" style="fill:rgb(139,197,63);fill-rule:nonzero;"></path>                </g>                <g transform="matrix(1,0,0,1,301.767,545.305)">                    <path d="M0,-0.016C0.173,-0.011 0.345,-0.004 0.517,0C0.345,-0.004 0.173,-0.011 0,-0.016" style="fill:rgb(41,170,225);fill-rule:nonzero;"></path>                </g>                <g transform="matrix(1,0,0,1,311.515,545.309)">                    <path d="M0,-0.075C-0.756,-0.046 -1.512,-0.017 -2.271,0C-1.512,-0.017 -0.756,-0.046 0,-0.075" style="fill:rgb(41,170,225);fill-rule:nonzero;"></path>                </g>                <g transform="matrix(1,0,0,1,305.865,545.343)">                    <path d="M0,0.008C0.017,0.008 0.034,0.009 0.051,0.009C0.302,0.009 0.551,-0 0.802,-0.001C0.534,0.001 0.268,0.008 0,0.008" style="fill:rgb(41,170,225);fill-rule:nonzero;"></path>                </g>                <g transform="matrix(1,0,0,1,315.37,545.197)">                    <path d="M0,-0.159C-0.953,-0.097 -1.909,-0.044 -2.867,0C-1.909,-0.043 -0.954,-0.098 0,-0.159" style="fill:rgb(41,170,225);fill-rule:nonzero;"></path>                </g>                <g transform="matrix(1,0,0,1,298.025,545.173)">                    <path d="M0,-0.036C0.225,-0.024 0.449,-0.011 0.674,0C0.449,-0.011 0.225,-0.024 0,-0.036" style="fill:rgb(41,170,225);fill-rule:nonzero;"></path>                </g>                <g transform="matrix(1,0,0,1,278.946,543.215)">                    <path d="M0,-0.365C0.671,-0.239 1.343,-0.116 2.018,0C1.344,-0.117 0.671,-0.239 0,-0.365" style="fill:rgb(41,170,225);fill-rule:nonzero;"></path>                </g>                <g transform="matrix(1,0,0,1,282.644,543.723)">                    <path d="M0,-0.23C0.482,-0.153 0.963,-0.072 1.447,0C0.963,-0.073 0.482,-0.152 0,-0.23" style="fill:rgb(41,170,225);fill-rule:nonzero;"></path>                </g>                <g transform="matrix(1,0,0,1,294.446,544.951)">                    <path d="M0,-0.047C0.209,-0.031 0.419,-0.016 0.628,0C0.419,-0.016 0.209,-0.031 0,-0.047" style="fill:rgb(41,170,225);fill-rule:nonzero;"></path>                </g>                <g transform="matrix(1,0,0,1,290.933,544.623)">                    <path d="M0,-0.034C0.118,-0.022 0.236,-0.012 0.354,0C0.236,-0.012 0.118,-0.022 0,-0.034" style="fill:rgb(41,170,225);fill-rule:nonzero;"></path>                </g>                <g transform="matrix(1,0,0,1,318.647,545.025)">                    <path d="M0,-0.238C-1.021,-0.15 -2.043,-0.067 -3.07,0C-2.043,-0.068 -1.02,-0.148 0,-0.238" style="fill:rgb(41,170,225);fill-rule:nonzero;"></path>                </g>                <g transform="matrix(1,0,0,1,273.121,542.682)">                    <path d="M0,-1.057C1.641,-0.679 3.289,-0.322 4.951,0C3.29,-0.323 1.64,-0.677 0,-1.057" style="fill:rgb(41,170,225);fill-rule:nonzero;"></path>                </g>                <g transform="matrix(1,0,0,1,273.017,541.625)">                    <path d="M0,-0.024C0.035,-0.016 0.069,-0.008 0.104,0C0.069,-0.008 0.035,-0.016 0,-0.024" style="fill:rgb(41,170,225);fill-rule:nonzero;"></path>                </g>                <g transform="matrix(0.0642434,0.997934,0.997934,-0.0642434,305.461,277.645)">                    <path d="M128.589,-155.153C128.589,-155.153 83.658,-83.863 138.587,0.152C184.018,69.637 128.589,139.507 128.589,139.507C128.589,139.507 211.429,81.918 154.452,-4.153C106.523,-76.556 128.589,-155.153 128.589,-155.153" style="fill:rgb(0,104,55);fill-rule:nonzero;"></path>                </g>                <g transform="matrix(-138.34,31.2157,31.2157,138.34,371.609,473.402)">                    <path d="M0.564,-0.185C0.9,-0.486 1.228,-0.542 1.356,-0.552C1.336,-0.106 1.021,0.29 0.564,0.393C0.086,0.501 -0.389,0.252 -0.584,-0.177C-0.308,0.122 0.164,0.175 0.564,-0.185Z" style="fill:url(#_Linear2);fill-rule:nonzero;"></path>                </g>                <g transform="matrix(0,141.819,141.819,0,295.549,421.636)">                    <path d="M0.027,-0.849C0.027,-0.849 -0.053,-0.41 0.246,0.022C0.569,0.487 0.196,0.849 0.196,0.849C0.196,0.849 0.41,0.401 0.173,0.079C0.009,-0.146 -0.036,-0.359 -0.036,-0.524C-0.036,-0.721 0.027,-0.849 0.027,-0.849Z" style="fill:url(#_Linear3);fill-rule:nonzero;"></path>                </g>                <g transform="matrix(0.984792,0.173739,0.173739,-0.984792,296.925,413.579)">                    <path d="M9.488,0.389C9.488,0.389 -8.59,47.707 12.203,107.136L9.488,111.348C9.488,111.348 -17.119,58.126 0.055,2.282C0.055,2.282 4.965,-0.907 9.488,0.389" style="fill:rgb(0,104,55);fill-rule:nonzero;"></path>                </g>                <g transform="matrix(0.489926,0.0864337,0.0864337,-0.489926,109.967,386.821)">                    <path d="M9.488,0.389C9.488,0.389 -8.59,47.707 12.203,107.136L9.488,111.348C9.488,111.348 -17.119,58.126 0.055,2.282C0.055,2.282 4.965,-0.907 9.488,0.389" style="fill:rgb(0,104,55);fill-rule:nonzero;"></path>                </g>                <g transform="matrix(-0.489926,0.0864337,-0.0864337,-0.489926,501.568,386.885)">                    <path d="M9.488,0.389C9.488,0.389 -8.59,47.707 12.203,107.136L9.488,111.348C9.488,111.348 -17.119,58.126 0.055,2.282C0.055,2.282 4.965,-0.907 9.488,0.389" style="fill:rgb(0,104,55);fill-rule:nonzero;"></path>                </g>                <g transform="matrix(1,0,0,1,327.858,302.65)">                    <path d="M0,10.073C0,10.073 0.088,30.675 -9.753,42.714C-9.753,42.714 9.072,37.984 4.114,8.696C4.114,8.696 15.374,22.106 14.132,40.372C14.132,40.372 33.773,21.6 9.462,4.036C9.462,4.036 23.451,5.095 37.352,22.644C37.352,22.644 46.794,0.602 11.74,-2.826C11.74,-2.826 19.132,-7.542 34.655,-5.382C34.655,-5.382 23.311,-21.858 2.856,-8.599C2.856,-8.599 -2.499,-32.641 -28.126,-25.859C-28.126,-25.859 -12.735,-21.949 -6.45,-7.862C-6.45,-7.862 -23.306,-21.237 -40.689,-3.49C-40.689,-3.49 -24.197,-5.882 -6.482,-0.249C-6.482,-0.249 -36.296,3.069 -33.309,26.333C-33.309,26.333 -22.307,7.525 -2.414,6.031C-2.414,6.031 -1.647,4.883 0,10.073" style="fill:rgb(0,104,55);fill-rule:nonzero;"></path>                </g>                <g transform="matrix(0.497492,0,0,0.497492,125.356,331.635)">                    <path d="M0,10.073C0,10.073 0.088,30.675 -9.753,42.714C-9.753,42.714 9.072,37.984 4.114,8.696C4.114,8.696 15.374,22.106 14.132,40.372C14.132,40.372 33.773,21.6 9.462,4.036C9.462,4.036 23.451,5.095 37.352,22.644C37.352,22.644 46.794,0.602 11.74,-2.826C11.74,-2.826 19.132,-7.542 34.655,-5.382C34.655,-5.382 23.311,-21.858 2.856,-8.599C2.856,-8.599 -2.499,-32.641 -28.126,-25.859C-28.126,-25.859 -12.735,-21.949 -6.45,-7.862C-6.45,-7.862 -23.306,-21.237 -40.689,-3.49C-40.689,-3.49 -24.197,-5.882 -6.482,-0.249C-6.482,-0.249 -36.296,3.069 -33.309,26.333C-33.309,26.333 -22.307,7.525 -2.414,6.031C-2.414,6.031 -1.647,4.883 0,10.073" style="fill:rgb(0,104,55);fill-rule:nonzero;"></path>                </g>                <g transform="matrix(-0.497492,0,0,0.497492,486.179,331.699)">                    <path d="M0,10.073C0,10.073 0.088,30.675 -9.753,42.714C-9.753,42.714 9.072,37.984 4.114,8.696C4.114,8.696 15.374,22.106 14.132,40.372C14.132,40.372 33.773,21.6 9.462,4.036C9.462,4.036 23.451,5.095 37.352,22.644C37.352,22.644 46.794,0.602 11.74,-2.826C11.74,-2.826 19.132,-7.542 34.655,-5.382C34.655,-5.382 23.311,-21.858 2.856,-8.599C2.856,-8.599 -2.499,-32.641 -28.126,-25.859C-28.126,-25.859 -12.735,-21.949 -6.45,-7.862C-6.45,-7.862 -23.306,-21.237 -40.689,-3.49C-40.689,-3.49 -24.197,-5.882 -6.482,-0.249C-6.482,-0.249 -36.296,3.069 -33.309,26.333C-33.309,26.333 -22.307,7.525 -2.414,6.031C-2.414,6.031 -1.647,4.883 0,10.073" style="fill:rgb(0,104,55);fill-rule:nonzero;"></path>                </g>                <g transform="matrix(0.941753,-0.336307,-0.336307,-0.941753,304.561,403.972)">                    <path d="M-15.548,-1.716C-15.548,-1.716 -0.314,38.155 -17.835,88.232L-15.548,91.782C-15.548,91.782 6.872,46.935 -7.599,-0.12C-7.599,-0.12 -11.736,-2.808 -15.548,-1.716" style="fill:rgb(0,104,55);fill-rule:nonzero;"></path>                </g>                <g transform="matrix(1,0,0,1,258.198,320.351)">                    <path d="M0,8.671C0,8.671 2.836,25.798 12.71,34.409C12.71,34.409 -3.595,33.138 -3.612,8.108C-3.612,8.108 -11.073,20.838 -7.461,35.836C-7.461,35.836 -26.428,23.015 -8.712,4.992C-8.712,4.992 -20.184,7.847 -29.254,24.388C-29.254,24.388 -40.21,7.411 -11.574,-0.387C-11.574,-0.387 -18.38,-3.261 -30.971,0.726C-30.971,0.726 -23.873,-14.563 -5.009,-6.437C-5.009,-6.437 -3.955,-27.165 18.292,-25.149C18.292,-25.149 6.058,-19.729 2.826,-7.138C2.826,-7.138 14.939,-20.63 31.886,-8.341C31.886,-8.341 17.848,-7.999 3.927,-0.819C3.927,-0.819 29.163,-2.273 29.967,17.476C29.967,17.476 18.171,3.405 1.435,4.973C1.435,4.973 0.635,4.127 0,8.671" style="fill:rgb(0,104,55);fill-rule:nonzero;"></path>                </g>                <g transform="matrix(0.999312,-0.037093,-0.037093,-0.999312,436.916,398.539)">                    <path d="M-1.33,-0.768C5.741,3.288 11.26,7.037 14.585,9.428C13.751,31.192 8.119,51.807 -1.33,70.189C-1.443,70.193 -25.691,70.998 -57.352,60.554C-46.087,54.122 -25.099,37.972 -1.33,-0.768" style="fill:rgb(0,104,55);fill-rule:nonzero;"></path>                </g>                <g transform="matrix(-0.89167,0.452686,0.452686,0.89167,409.6,404.421)">                    <path d="M5.31,-72.467C18.124,-73.564 32.45,-73.531 47.766,-71.444C37.535,-60.425 14.102,-31.791 5.31,7.379C-4.249,8.23 -13.416,8.119 -21.389,7.585C-15.493,-41.53 -1.13,-64.416 5.31,-72.467" style="fill:rgb(0,104,55);fill-rule:nonzero;"></path>                </g>                <g transform="matrix(1,0,0,1,330.601,422.034)">                    <path d="M0,-56.802C-11.877,-48.111 -23.627,-37.373 -34.523,-24.088C-26.97,-21.032 -19.473,-17.425 -12.053,-13.228C3.465,-4.451 19.952,0 36.949,0C49.68,0 62.182,-2.91 73.565,-7.078C46.837,-38.818 11.328,-52.92 0,-56.802" style="fill:rgb(0,104,55);fill-rule:nonzero;"></path>                </g>                <g transform="matrix(1,0,0,1,156.193,283.616)">                    <path d="M0,-5.273C4.265,-10.503 4.794,-13.259 1.959,-15.572C0.597,-16.682 -0.789,-17.014 -2.152,-16.47C-3.746,-15.869 -5.017,-14.76 -7.48,-11.741L-9.642,-9.088L-1.981,-2.842L0,-5.273ZM-21.132,-1.164L-8.278,-16.928C-4.855,-21.127 -2.544,-22.983 0.163,-23.596C2.506,-24.139 5.076,-23.455 7.137,-21.773C9.274,-20.031 10.402,-17.578 10.253,-15.064C10.056,-12.342 8.787,-9.882 5.423,-5.757L1.039,-0.379L6.638,4.185C8.662,5.837 9.162,5.752 11.136,3.255L12.727,1.303L15.748,3.765L3.436,18.866L0.416,16.404L1.767,14.746C3.756,12.382 3.761,11.773 1.743,10.189L-12.29,-1.253C-14.249,-2.912 -14.844,-2.783 -16.76,-0.359L-18.11,1.299L-21.132,-1.164Z" style="fill:rgb(247,148,29);fill-rule:nonzero;"></path>                </g>                <g transform="matrix(1,0,0,1,175.421,269.859)">                    <path d="M0,-20.669L3.721,-10.408L9.603,-15.446L0,-20.669ZM31.446,-15.578L17.302,-3.463L14.767,-6.422L16.211,-7.658C18.088,-9.265 18.407,-9.913 17.666,-10.78C17.418,-11.068 16.909,-11.445 16.357,-11.723L13.25,-13.378L5.167,-6.455L6.384,-2.992C6.635,-2.333 6.897,-1.807 7.115,-1.554C7.763,-0.797 8.418,-0.982 9.97,-2.31L11.629,-3.732L14.163,-0.774L2.256,9.425L-0.278,6.466L1.021,5.354C2.66,3.762 2.852,2.598 1.858,0.196L-7.064,-24.315L-0.317,-30.094L22.764,-17.461C25.552,-16.033 26.056,-16.027 27.901,-17.671L28.912,-18.537L31.446,-15.578Z" style="fill:rgb(247,148,29);fill-rule:nonzero;"></path>                </g>                <g transform="matrix(1,0,0,1,209.134,251.882)">                    <path d="M0,-30.383L-2.194,-29.148C-4.951,-27.651 -5.119,-27.174 -3.838,-24.897L6.464,-6.595L11.597,-9.485C17.714,-12.763 18.341,-15.134 14.998,-22.14L18.725,-24.237L25.227,-12.685L-3.345,3.395L-5.255,-0L-3.393,-1.049C-0.635,-2.545 -0.408,-3.11 -1.708,-5.322L-10.588,-21.099C-11.804,-23.358 -12.404,-23.456 -15.113,-21.877L-16.977,-20.828L-18.888,-24.223L-1.911,-33.778L0,-30.383Z" style="fill:rgb(247,148,29);fill-rule:nonzero;"></path>                </g>                <g transform="matrix(1,0,0,1,274.47,234.016)">                    <path d="M0,-36.165L-2.013,-35.599C-5.092,-34.784 -5.355,-34.315 -4.662,-31.844L0.235,-14.411C0.93,-11.94 1.399,-11.677 4.452,-12.583L6.465,-13.149L7.518,-9.396L-10.007,-4.474L-11.061,-8.226L-9.368,-8.702C-6.334,-9.504 -6.025,-9.986 -6.766,-12.444L-11.996,-31.067L-14.353,-3.253L-19.89,-1.698L-36.144,-24.236L-30.926,-5.658C-30.231,-3.187 -29.762,-2.924 -26.802,-3.805L-25.246,-4.242L-24.192,-0.49L-39.292,3.752L-40.347,-0.001L-38.469,-0.527C-35.483,-1.317 -35.219,-1.786 -35.914,-4.257L-40.811,-21.691C-41.504,-24.162 -41.972,-24.425 -44.935,-23.544L-46.81,-23.017L-47.865,-26.769L-31.3,-31.422L-18.877,-13.732L-17.16,-35.393L-1.053,-39.917L0,-36.165Z" style="fill:rgb(247,148,29);fill-rule:nonzero;"></path>                </g>                <g transform="matrix(1,0,0,1,337.887,204.362)">                    <path d="M0,10.083C-0.743,14.408 -1.52,16.299 -3.453,18.331C-6.376,21.33 -10.139,22.446 -15.776,21.976C-21.127,21.53 -25.133,19.813 -28.212,16.695C-31.596,13.265 -33.176,8.746 -32.756,3.726C-31.955,-5.888 -23.832,-12.363 -13.649,-11.515C-9.861,-11.198 -7.737,-10.354 -3.823,-7.547L-2.709,-10.029L1.506,-9.677L0.435,3.156L-4.017,2.785C-4.222,-0.475 -4.625,-1.939 -5.867,-3.616C-7.449,-5.799 -9.735,-6.991 -12.719,-7.24C-15.987,-7.512 -18.741,-6.502 -20.738,-4.284C-22.628,-2.201 -23.615,0.483 -23.947,4.46C-24.28,8.439 -23.752,11.249 -22.231,13.617C-20.629,16.135 -18.128,17.584 -14.907,17.852C-11.781,18.113 -9.082,17.194 -7.302,15.291C-6.094,13.961 -5.505,12.627 -4.926,9.672L0,10.083Z" style="fill:rgb(247,148,29);fill-rule:nonzero;"></path>                </g>                <g transform="matrix(1,0,0,1,357.369,226.543)">                    <path d="M0,-20.143C-2.325,-18.575 -3.911,-16.181 -5.119,-12.278C-6.286,-8.512 -6.344,-5.596 -5.311,-2.988C-4.153,-0.143 -1.976,1.824 1.2,2.808C4.377,3.792 7.283,3.399 9.847,1.706C12.233,0.107 13.759,-2.255 14.982,-6.204C16.134,-9.925 16.174,-12.946 15.16,-15.449C14.031,-18.235 11.733,-20.289 8.784,-21.203C5.516,-22.215 2.623,-21.867 0,-20.143M23.395,-3.499C21.878,1.403 18.826,4.834 14.281,6.659C9.992,8.465 5.318,8.46 -0.264,6.732C-11.064,3.387 -16.485,-5.452 -13.546,-14.938C-10.596,-24.469 -1.157,-28.608 9.871,-25.193C20.898,-21.778 26.36,-13.075 23.395,-3.499" style="fill:rgb(247,148,29);fill-rule:nonzero;"></path>                </g>                <g transform="matrix(1,0,0,1,401.486,248.197)">                    <path d="M0,-23.386L-8.347,-16.352L-1.589,-12.57L0,-23.386ZM6.07,7.888L-10.181,-1.208L-8.278,-4.608L-6.62,-3.68C-4.465,-2.473 -3.745,-2.397 -3.188,-3.392C-3.002,-3.723 -2.824,-4.332 -2.754,-4.946L-2.272,-8.433L-11.559,-13.631L-14.39,-11.295C-14.923,-10.831 -15.324,-10.403 -15.488,-10.113C-15.974,-9.243 -15.576,-8.692 -13.793,-7.694L-11.885,-6.627L-13.788,-3.227L-27.469,-10.885L-25.566,-14.284L-24.073,-13.449C-22.014,-12.459 -20.855,-12.682 -18.944,-14.443L0.984,-31.274L8.738,-26.935L4.842,-0.912C4.463,2.198 4.633,2.673 6.812,3.838L7.973,4.488L6.07,7.888Z" style="fill:rgb(247,148,29);fill-rule:nonzero;"></path>                </g>                <g transform="matrix(1,0,0,1,407.855,252.319)">                    <path d="M0,4.781L8.238,-4.866L11.671,-1.935C10.109,1.356 9.803,3.032 10.4,5.479C11.013,8.126 12.554,10.566 14.939,12.602C18.046,15.257 21.124,15.823 22.636,14.052C23.129,13.474 23.411,12.778 23.42,12.036C23.51,10.613 22.647,9.063 19.543,5.163C15.72,0.274 14.071,-2.259 13.066,-4.741C12.047,-7.424 12.583,-10.466 14.495,-12.706C18.445,-17.331 25.222,-16.853 31.401,-11.577C34.472,-8.954 35.816,-6.87 37.261,-2.636L39.657,-3.465L42.584,-0.966L34.931,7.995L31.571,5.125C33.132,2.273 33.475,0.628 33.08,-1.397C32.544,-3.916 30.895,-6.448 28.548,-8.454C25.656,-10.923 22.924,-11.381 21.382,-9.574C20.887,-8.997 20.58,-8.197 20.628,-7.594C20.754,-5.987 21.415,-4.859 24.526,-0.891C28.306,3.899 29.949,6.365 30.996,8.945C32.233,11.813 31.702,14.922 29.666,17.307C25.561,22.112 18.578,21.584 12.037,15.999C8.642,13.099 7.07,10.695 5.676,6.255L3.106,7.434L0,4.781Z" style="fill:rgb(247,148,29);fill-rule:nonzero;"></path>                </g>                <g transform="matrix(1,0,0,1,461.111,285.086)">                    <path d="M0,-15.864C-3.841,-20.705 -6.892,-20.931 -12.066,-16.822L-14.9,-20.338L-5.094,-28.242L15.878,-2.226L6.072,5.678L3.266,2.2C8.389,-2.05 8.778,-5.051 4.863,-9.832L-11.569,3.413C-13.566,5.024 -13.623,5.558 -11.618,7.971L-10.037,9.932L-13.071,12.378L-25.51,-3.054L-22.476,-5.5L-20.895,-3.539C-18.963,-1.066 -18.429,-1.008 -16.43,-2.619L0,-15.864Z" style="fill:rgb(247,148,29);fill-rule:nonzero;"></path>                </g>                <g transform="matrix(1,0,0,1,124.613,419.262)">                    <path d="M0,34.355L-0.877,30.217C6.638,28.09 7.755,26.251 6.078,19.029L4.995,13.916L-4.116,15.846L-3.762,17.52C-2.996,20.903 -2.247,21.231 2.255,20.471L3.122,24.561L-11.66,27.695L-12.527,23.604L-11.085,23.299C-7.758,22.495 -6.979,21.359 -7.621,18.338L-7.984,16.617L-15.561,18.224C-18.07,18.755 -18.365,19.207 -17.658,22.311L-17.136,24.774L-20.948,25.582L-24.977,6.571L-21.165,5.763L-20.722,7.854C-20.128,10.887 -19.658,11.272 -17.157,10.693L0.554,6.94C3.073,6.454 3.346,5.911 2.66,2.9L2.216,0.808L6.028,0L12.737,31.655L0,34.355Z" style="fill:rgb(39,170,225);fill-rule:nonzero;"></path>                </g>                <g transform="matrix(1,0,0,1,135.725,485.804)">                    <path d="M0,-19.351L-10.916,-19.074L-8.001,-11.897L0,-19.351ZM-14.804,8.869L-21.812,-8.392L-18.202,-9.858L-17.486,-8.098C-16.557,-5.808 -16.043,-5.299 -14.985,-5.728C-14.633,-5.87 -14.115,-6.235 -13.676,-6.67L-11.12,-9.093L-15.124,-18.956L-18.795,-18.901C-19.501,-18.871 -20.084,-18.789 -20.391,-18.664C-21.316,-18.288 -21.348,-17.608 -20.58,-15.715L-19.757,-13.689L-23.367,-12.223L-29.268,-26.754L-25.656,-28.22L-25.013,-26.636C-24.024,-24.576 -22.979,-24.025 -20.385,-24.206L5.699,-24.898L9.042,-16.663L-10.263,1.229C-12.501,3.42 -12.668,3.898 -11.693,6.169L-11.192,7.403L-14.804,8.869Z" style="fill:rgb(39,170,225);fill-rule:nonzero;"></path>                </g>                <g transform="matrix(1,0,0,1,147.931,508.176)">                    <path d="M0,-5.633C2.578,-1.813 3.639,-0.581 5.094,0.214C6.363,0.906 7.969,0.739 9.347,-0.192C10.687,-1.095 11.338,-2.338 11.212,-3.799C11.084,-5.604 10.736,-6.288 7.84,-10.58L5.793,-13.612L-1.887,-8.429L0,-5.633ZM1.527,-26.898L13.594,-9.018C16.225,-5.119 17.374,-2.399 17.52,0.197C17.586,2.503 16.465,4.75 14.457,6.105C12.527,7.408 10.328,7.63 8.242,6.747C6.748,6.148 5.716,5.47 3.505,3.466C5.203,7.765 4.844,9.442 1.655,11.937L-1.021,13.915C-3.004,15.31 -3.33,15.931 -2.745,16.798C-1.975,17.939 -1.171,17.685 2.517,15.252L4.617,18.363L3.948,18.816C1.231,20.65 -0.36,21.265 -2.192,21.183C-4.262,21.089 -6.419,19.679 -7.907,17.474C-9.21,15.544 -9.842,13.334 -9.522,11.513C-9.267,9.851 -8.378,8.792 -5.675,6.852L-3.061,5.031C-0.386,3.053 -0.029,0.864 -2.007,-1.813L-5.038,-6.304L-11.615,-1.864C-13.78,-0.402 -13.844,0.099 -12.023,2.711L-10.615,4.798L-13.844,6.977L-24.742,-9.17L-21.513,-11.349L-20.316,-9.576C-18.602,-6.95 -18.046,-6.809 -15.947,-8.283L-0.943,-18.41C1.211,-19.807 1.261,-20.413 -0.507,-22.947L-1.703,-24.718L1.527,-26.898Z" style="fill:rgb(39,170,225);fill-rule:nonzero;"></path>                </g>                <g transform="matrix(1,0,0,1,204.834,535.042)">                    <path d="M0,14.409L-1.563,13.022C-3.913,10.871 -4.449,10.903 -6.153,12.822L-18.176,26.36C-19.88,28.277 -19.848,28.815 -17.437,30.894L-15.873,32.281L-18.461,35.195L-32.07,23.11L-29.482,20.196L-28.167,21.364C-25.853,23.481 -25.281,23.481 -23.612,21.532L-10.77,7.07L-35.445,20.112L-39.743,16.294L-29.562,-9.555L-42.373,4.87C-44.077,6.788 -44.045,7.324 -41.704,9.341L-40.497,10.413L-43.085,13.327L-54.81,2.914L-52.222,0L-50.764,1.295C-48.487,3.381 -47.95,3.349 -46.247,1.431L-34.224,-12.108C-32.52,-14.027 -32.552,-14.563 -34.893,-16.579L-36.349,-17.872L-33.761,-20.786L-20.9,-9.362L-29.071,10.645L-9.92,0.389L2.588,11.496L0,14.409Z" style="fill:rgb(39,170,225);fill-rule:nonzero;"></path>                </g>                <g transform="matrix(1,0,0,1,232.543,563.128)">                    <path d="M0,9.82L-3.783,7.826C-1.048,1.21 -1.792,-0.739 -8.225,-4.023L-14.657,-7.412L-18.999,0.826L-17.192,1.779C-13.47,3.686 -12.591,3.344 -10.319,-0.559L-6.577,1.412L-13.623,14.778L-17.406,12.784L-16.718,11.481C-15.188,8.474 -15.71,7.018 -19.031,5.267L-20.837,4.315L-25.8,13.731L-19.916,16.832C-13.298,20.481 -10.904,19.809 -6.766,13.182L-2.941,15.199L-9.122,26.926L-39.47,10.931L-37.653,7.484L-35.762,8.481C-33.052,9.962 -32.454,9.847 -31.3,7.556L-22.859,-8.459C-21.622,-10.707 -21.863,-11.264 -24.619,-12.662L-26.51,-13.659L-24.693,-17.106L5.739,-1.067L0,9.82Z" style="fill:rgb(39,170,225);fill-rule:nonzero;"></path>                </g>                <g transform="matrix(1,0,0,1,252.975,586.67)">                    <path d="M0,-6.257C4.444,-5.028 6.051,-4.78 7.675,-5.119C9.088,-5.418 10.202,-6.59 10.645,-8.193C11.077,-9.75 10.765,-11.119 9.719,-12.149C8.448,-13.438 7.741,-13.732 2.746,-15.113L-0.781,-16.089L-3.252,-7.156L0,-6.257ZM-12.658,-23.422L8.137,-17.665C12.673,-16.411 15.315,-15.087 17.114,-13.209C18.663,-11.498 19.269,-9.061 18.623,-6.726C18.002,-4.481 16.475,-2.882 14.313,-2.197C12.79,-1.682 11.562,-1.528 8.578,-1.615C12.665,0.552 13.479,2.06 12.678,6.03L11.927,9.274C11.327,11.623 11.482,12.308 12.49,12.586C13.819,12.955 14.263,12.239 15.488,7.99L19.106,8.992L18.891,9.772C18.016,12.932 17.206,14.435 15.76,15.563C14.124,16.837 11.568,17.165 9.003,16.454C6.758,15.833 4.841,14.563 3.902,12.971C3.013,11.541 3.002,10.159 3.799,6.926L4.602,3.844C5.351,0.6 4.201,-1.298 0.955,-2.047L-4.266,-3.492L-6.384,4.158C-7.081,6.677 -6.803,7.099 -3.722,7.902L-1.293,8.574L-2.333,12.33L-21.114,7.133L-20.076,3.377L-18.014,3.948C-15.003,4.83 -14.489,4.577 -13.851,2.092L-9.021,-15.363C-8.29,-17.822 -8.646,-18.317 -11.637,-19.095L-13.699,-19.664L-12.658,-23.422Z" style="fill:rgb(39,170,225);fill-rule:nonzero;"></path>                </g>                <g transform="matrix(1,0,0,1,277.092,575.217)">                    <path d="M0,30.017L0.855,17.359L5.358,17.663C6.068,21.235 6.824,22.763 8.763,24.37C10.834,26.128 13.526,27.168 16.656,27.38C20.733,27.655 23.54,26.272 23.697,23.949C23.748,23.19 23.56,22.464 23.124,21.864C22.346,20.668 20.73,19.938 15.91,18.661C9.925,17.019 7.091,15.97 4.804,14.577C2.384,13.033 0.999,10.273 1.197,7.333C1.607,1.265 7.331,-2.397 15.438,-1.85C19.468,-1.578 21.79,-0.705 25.477,1.829L26.904,-0.265L30.743,-0.006L29.949,11.751L25.541,11.454C25.093,8.232 24.385,6.709 22.86,5.32C20.927,3.617 18.093,2.569 15.011,2.361C11.218,2.105 8.752,3.367 8.592,5.737C8.541,6.496 8.77,7.322 9.168,7.776C10.229,8.991 11.432,9.501 16.296,10.83C22.19,12.417 24.981,13.416 27.359,14.862C30.063,16.426 31.492,19.237 31.281,22.366C30.855,28.671 24.936,32.414 16.355,31.835C11.898,31.534 9.203,30.543 5.435,27.812L4.076,30.292L0,30.017Z" style="fill:rgb(39,170,225);fill-rule:nonzero;"></path>                </g>                <g transform="matrix(1,0,0,1,377.689,601.639)">                    <path d="M0,-36.112L-2.013,-35.549C-5.091,-34.737 -5.355,-34.268 -4.663,-31.798L0.214,-14.364C0.906,-11.893 1.375,-11.629 4.426,-12.533L6.44,-13.097L7.489,-9.344L-10.035,-4.441L-11.085,-8.193L-9.392,-8.667C-6.36,-9.466 -6.049,-9.947 -6.787,-12.405L-11.997,-31.029L-14.382,-3.224L-19.919,-1.675L-36.146,-24.223L-30.948,-5.646C-30.257,-3.175 -29.788,-2.911 -26.826,-3.789L-25.27,-4.225L-24.22,-0.472L-39.321,3.753L-40.371,0L-38.495,-0.525C-35.507,-1.31 -35.243,-1.779 -35.935,-4.25L-40.812,-21.684C-41.504,-24.155 -41.972,-24.419 -44.935,-23.54L-46.81,-23.015L-47.86,-26.768L-31.295,-31.402L-18.893,-13.705L-17.157,-35.358L-1.05,-39.865L0,-36.112Z" style="fill:rgb(39,170,225);fill-rule:nonzero;"></path>                </g>                <g transform="matrix(1,0,0,1,395.23,579.563)">                    <path d="M0,-20.677L1.733,-9.894L8.458,-13.741L0,-20.677ZM29.949,-9.773L13.777,-0.52L11.841,-3.903L13.49,-4.847C15.636,-6.074 16.072,-6.652 15.505,-7.643C15.316,-7.974 14.886,-8.438 14.396,-8.816L11.655,-11.026L2.413,-5.738L2.957,-2.106C3.081,-1.411 3.241,-0.845 3.405,-0.557C3.902,0.311 4.58,0.252 6.353,-0.765L8.251,-1.85L10.187,1.533L-3.428,9.322L-5.364,5.939L-3.879,5.089C-1.968,3.833 -1.562,2.724 -2.088,0.178L-6.259,-25.583L1.456,-29.999L21.77,-13.253C24.241,-11.327 24.737,-11.227 26.858,-12.495L28.013,-13.156L29.949,-9.773Z" style="fill:rgb(39,170,225);fill-rule:nonzero;"></path>                </g>                <g transform="matrix(1,0,0,1,429.39,548.456)">                    <path d="M0,-6.485C3.444,-9.548 4.526,-10.763 5.121,-12.31C5.636,-13.661 5.257,-15.231 4.153,-16.474C3.079,-17.681 1.76,-18.162 0.328,-17.842C-1.443,-17.474 -2.076,-17.041 -5.945,-13.597L-8.68,-11.166L-2.52,-4.241L0,-6.485ZM-21.282,-5.171L-5.163,-19.51C-1.647,-22.635 0.898,-24.136 3.452,-24.626C5.727,-24.997 8.104,-24.186 9.715,-22.374C11.261,-20.635 11.775,-18.484 11.176,-16.298C10.783,-14.739 10.247,-13.625 8.554,-11.167C12.59,-13.422 14.299,-13.288 17.197,-10.46L19.514,-8.069C21.159,-6.29 21.818,-6.05 22.599,-6.744C23.63,-7.66 23.27,-8.421 20.368,-11.755L23.174,-14.25L23.71,-13.646C25.89,-11.196 26.71,-9.7 26.874,-7.874C27.056,-5.81 25.944,-3.484 23.955,-1.716C22.215,-0.169 20.108,0.752 18.261,0.676C16.581,0.646 15.412,-0.097 13.13,-2.518L10.978,-4.866C8.662,-7.256 6.444,-7.319 4.054,-5.002L0.005,-1.401L5.279,4.528C7.016,6.481 7.521,6.477 9.869,4.325L11.751,2.651L14.34,5.564L-0.218,18.512L-2.807,15.599L-1.21,14.178C1.165,12.13 1.232,11.561 -0.509,9.676L-12.54,-3.853C-14.211,-5.802 -14.819,-5.77 -17.094,-3.681L-18.691,-2.26L-21.282,-5.171Z" style="fill:rgb(39,170,225);fill-rule:nonzero;"></path>                </g>                <g transform="matrix(1,0,0,1,451.38,516.409)">                    <path d="M0,-12.042L-0.941,-10.728C-2.802,-8.205 -2.77,-7.596 -0.655,-6.143L6.033,-1.363L5.364,-16.443C5.369,-17.024 5.199,-17.438 4.927,-17.632C4.465,-17.963 4.033,-17.686 3.26,-16.604L1.96,-14.788L-1.208,-17.052L8.875,-31.162L12.045,-28.898L11.272,-27.814C10.239,-26.451 9.869,-24.788 9.962,-21.977L10.407,-12.956L27.712,-13.145C29.506,-13.205 30.578,-13.724 31.463,-14.961L32.54,-16.468L35.711,-14.202L24.63,1.3L21.46,-0.966L22.566,-2.514C23.616,-3.981 23.854,-4.805 23.351,-5.164C23.158,-5.302 22.804,-5.38 22.263,-5.358L10.807,-5.428L10.904,2.117L14.075,4.383C16.134,5.913 16.72,5.748 18.504,3.169L19.389,1.932L22.558,4.198L11.893,19.12L8.723,16.854L9.967,15.115C11.801,12.63 11.769,12.022 9.653,10.569L-5.075,0.042C-7.136,-1.49 -7.72,-1.323 -9.479,1.216L-10.722,2.956L-13.891,0.69L-3.17,-14.308L0,-12.042Z" style="fill:rgb(39,170,225);fill-rule:nonzero;"></path>                </g>                <g transform="matrix(1,0,0,1,485.507,491.32)">                    <path d="M0,-34.485L-1.648,-30.537C-8.485,-32.673 -10.362,-31.757 -13.06,-25.054L-15.864,-18.344L-7.267,-14.752L-6.48,-16.637C-4.91,-20.514 -5.331,-21.361 -9.423,-23.277L-7.792,-27.18L6.155,-21.351L4.505,-17.405L3.146,-17.973C0.014,-19.231 -1.391,-18.581 -2.839,-15.117L-3.628,-13.23L6.196,-9.125L8.763,-15.265C11.809,-22.184 10.927,-24.51 3.954,-28.042L5.622,-32.033L17.858,-26.919L4.625,4.746L1.029,3.243L1.853,1.27C3.089,-1.562 2.921,-2.148 0.534,-3.094L-16.176,-10.077C-18.525,-11.111 -19.059,-10.818 -20.207,-7.949L-21.033,-5.976L-24.628,-7.478L-11.359,-39.231L0,-34.485Z" style="fill:rgb(39,170,225);fill-rule:nonzero;"></path>                </g>                <g transform="matrix(1,0,0,1,481.022,431.919)">                    <path d="M0,6.612C-1.263,12.658 0.515,15.148 6.982,16.494L6.094,20.919L-6.251,18.441L0.323,-14.307L12.668,-11.828L11.788,-7.45C5.247,-8.666 2.693,-7.046 1.525,-0.981L22.207,3.171C24.723,3.675 25.171,3.378 25.741,0.294L26.237,-2.175L30.057,-1.409L26.157,18.017L22.337,17.251L22.833,14.781C23.497,11.717 23.199,11.269 20.684,10.763L0,6.612Z" style="fill:rgb(39,170,225);fill-rule:nonzero;"></path>                </g>            </g>        </g>    </g>    <defs>        <linearGradient id="_Linear2" x1="0" y1="0" x2="1" y2="0" gradientUnits="userSpaceOnUse" gradientTransform="matrix(0.220111,0.975475,0.975475,-0.220111,0.36502,-0.456562)"><stop offset="0" style="stop-color:rgb(0,163,231);stop-opacity:1"></stop><stop offset="0.58" style="stop-color:rgb(1,154,224);stop-opacity:1"></stop><stop offset="1" style="stop-color:rgb(0,121,194);stop-opacity:1"></stop></linearGradient>        <linearGradient id="_Linear3" x1="0" y1="0" x2="1" y2="0" gradientUnits="userSpaceOnUse" gradientTransform="matrix(1,0,0,-1,0,3.00525e-06)"><stop offset="0" style="stop-color:rgb(0,163,231);stop-opacity:1"></stop><stop offset="0.58" style="stop-color:rgb(1,154,224);stop-opacity:1"></stop><stop offset="1" style="stop-color:rgb(0,121,194);stop-opacity:1"></stop></linearGradient>    </defs></svg>